<svg id="Layer_1" data-name="Layer 1" xmlns="http://www.w3.org/2000/svg" xmlns:xlink="http://www.w3.org/1999/xlink" viewBox="0 0 379.01 404.28"><defs><style>.cls-1{fill:none;stroke:#45859b;stroke-miterlimit:10;stroke-width:6.59px;}.cls-2{clip-path:url(#clip-path);}.cls-3{fill:#fff;}.cls-4{fill:#606060;}.cls-5{opacity:0.5;}.cls-6{fill:#45859b;}.cls-7{opacity:0.15;}.cls-8{opacity:0.1;}</style><clipPath id="clip-path"><path class="cls-1" d="M283.81,29.39H230.74a25.69,25.69,0,0,0-22.31,13L181.64,89.3a25.65,25.65,0,0,0,0,25.46l26.79,47a25.69,25.69,0,0,0,22.31,12.95h53.07a25.69,25.69,0,0,0,22.31-12.95l26.79-47a25.65,25.65,0,0,0,0-25.46L306.12,42.35A25.69,25.69,0,0,0,283.81,29.39Z"/></clipPath></defs><title>webProjButton-01</title><g class="cls-2"><path class="cls-3" d="M167.36,29.24H303.79V140.83H167.36ZM235.17,131q22.07,0,44.12,0a14.28,14.28,0,0,0,6.65-1.53c6.33-3.24,9.07-8.47,9.07-15.37v-33c0-8.78,0-17.57,0-26.35a15.8,15.8,0,0,0-6.4-12.92,14.91,14.91,0,0,0-9.42-3q-41.87,0-83.73,0c-1.68,0-3.36-.07-5,0A14.65,14.65,0,0,0,179.63,44a16.81,16.81,0,0,0-4.14,11.59q0,29.34,0,58.68a19.61,19.61,0,0,0,.25,3.51c1.2,6.44,5.08,10.59,11.18,12.66a14,14,0,0,0,4.44.54Q213.28,131,235.17,131Z"/><path d="M235.17,131q-21.9,0-43.79,0a14,14,0,0,1-4.44-.54c-6.1-2.07-10-6.22-11.18-12.66a19.61,19.61,0,0,1-.25-3.51q0-29.34,0-58.68A16.81,16.81,0,0,1,179.63,44,14.65,14.65,0,0,1,190.4,38.9c1.68-.09,3.36,0,5,0q41.87,0,83.73,0a14.91,14.91,0,0,1,9.42,3A15.8,15.8,0,0,1,295,54.74c.05,8.78,0,17.57,0,26.35v33c0,6.9-2.74,12.13-9.07,15.37a14.28,14.28,0,0,1-6.65,1.53Q257.24,131,235.17,131ZM183.29,73.62a1.37,1.37,0,0,0-.07.31c0,13.78-.05,27.56,0,41.33a7.09,7.09,0,0,0,4.48,6.84,9.68,9.68,0,0,0,3.74.71q43.72.06,87.47,0c5.14,0,8.35-3.2,8.35-8.34q0-19.86,0-39.72V73.62Zm-.07-8.26H287.28c0-3.79.16-7.5,0-11.2a7.64,7.64,0,0,0-7.59-7.35H191a7.68,7.68,0,0,0-7.7,7.36C183.06,57.86,183.22,61.57,183.22,65.36Z"/><path class="cls-3" d="M183.29,73.62h104v1.16q0,19.86,0,39.72c0,5.14-3.21,8.34-8.35,8.34q-43.74,0-87.47,0a9.68,9.68,0,0,1-3.74-.71,7.09,7.09,0,0,1-4.48-6.84c-.08-13.77,0-27.55,0-41.33A1.37,1.37,0,0,1,183.29,73.62Z"/><path class="cls-3" d="M183.22,65.36c0-3.79-.16-7.5.05-11.2A7.68,7.68,0,0,1,191,46.8h88.67a7.64,7.64,0,0,1,7.59,7.35c.21,3.7,0,7.41,0,11.2Zm18-9.12a6.43,6.43,0,1,0-12.85,0,6.43,6.43,0,1,0,12.85,0Zm16.7,0a6.42,6.42,0,1,0-12.84,0,6.42,6.42,0,1,0,12.84,0Zm3.86-.1a6.42,6.42,0,1,0,12.83.24,6.42,6.42,0,1,0-12.83-.24Z"/><path d="M201.2,56.24a6.43,6.43,0,1,1-12.85,0,6.43,6.43,0,1,1,12.85,0Z"/><path d="M217.9,56.22a6.42,6.42,0,1,1-12.84,0,6.42,6.42,0,1,1,12.84,0Z"/><path d="M221.76,56.12a6.42,6.42,0,1,1,12.83.24,6.42,6.42,0,1,1-12.83-.24Z"/></g><path class="cls-1" d="M283.81,29.39H230.74a25.69,25.69,0,0,0-22.31,13L181.64,89.3a25.65,25.65,0,0,0,0,25.46l26.79,47a25.69,25.69,0,0,0,22.31,12.95h53.07a25.69,25.69,0,0,0,22.31-12.95l26.79-47a25.65,25.65,0,0,0,0-25.46L306.12,42.35A25.69,25.69,0,0,0,283.81,29.39Z"/><path class="cls-4" d="M205.64,203.34l-4.06-14.16h.89l3.67,13.23h0l3.72-13.23H211l3.79,13.23h0l3.61-13.23h.92l-4,14.16h-1l-3.86-13.41h0l-3.81,13.41Z"/><path class="cls-4" d="M229,198.34h-8.19a5,5,0,0,0,.91,3.2,3.31,3.31,0,0,0,2.82,1.38,3.59,3.59,0,0,0,2.4-.81,3.81,3.81,0,0,0,1.23-2.22h.75a4.42,4.42,0,0,1-1.43,2.74,4.47,4.47,0,0,1-2.95,1,4,4,0,0,1-3.35-1.53,5.64,5.64,0,0,1-1.13-3.63,6.38,6.38,0,0,1,1.09-3.81,3.92,3.92,0,0,1,3.39-1.7,4.06,4.06,0,0,1,3.47,1.62A5.68,5.68,0,0,1,229,198.34Zm-8.19-.65h7.44a4.64,4.64,0,0,0-1-2.88,3.39,3.39,0,0,0-2.72-1.25,3.23,3.23,0,0,0-2.64,1.31A5,5,0,0,0,220.79,197.69Z"/><path class="cls-4" d="M231.07,203.34V189.18h.75v6.13a3.36,3.36,0,0,1,1.52-1.81,4.63,4.63,0,0,1,2.34-.59,4,4,0,0,1,3.33,1.48A5.63,5.63,0,0,1,240.1,198q0,3.19-1.68,4.61a4.4,4.4,0,0,1-5.61-.08,3.25,3.25,0,0,1-1-1.47v2.28Zm4.62-.42a3.12,3.12,0,0,0,2.83-1.58,6.24,6.24,0,0,0,.83-3.34,5.05,5.05,0,0,0-.91-3.07,3.26,3.26,0,0,0-2.75-1.37,3.49,3.49,0,0,0-2.92,1.27,4.85,4.85,0,0,0-1,3.17,5.88,5.88,0,0,0,.91,3.4A3.36,3.36,0,0,0,235.69,202.92Z"/><path class="cls-4" d="M247.79,203.34V189.18h6a4.48,4.48,0,0,1,2.64.71,4.27,4.27,0,0,1,.31,6.13,4.83,4.83,0,0,1-3.27,1h-4.81v6.31Zm.87-13.41v6.35h5a3.41,3.41,0,0,0,2.67-1,3.16,3.16,0,0,0,.74-2.13,3.31,3.31,0,0,0-.59-2,3,3,0,0,0-2.7-1.21Z"/><path class="cls-4" d="M260.22,193.14v2.27h.06a3,3,0,0,1,1.41-1.7,4.24,4.24,0,0,1,2.48-.63v.76h-.4a3.32,3.32,0,0,0-2.41,1,3.68,3.68,0,0,0-.84,1.19,4.19,4.19,0,0,0-.3,1.74v5.56h-.75v-10.2Z"/><path class="cls-4" d="M264.64,198.24a5.77,5.77,0,0,1,1.2-3.75,4.57,4.57,0,0,1,6.91,0,6.46,6.46,0,0,1,0,7.5,4.55,4.55,0,0,1-6.91,0A5.77,5.77,0,0,1,264.64,198.24Zm.75,0a5.21,5.21,0,0,0,1,3.26,3.67,3.67,0,0,0,5.8,0,5.75,5.75,0,0,0,0-6.51,3.66,3.66,0,0,0-5.8,0A5.18,5.18,0,0,0,265.39,198.24Z"/><path class="cls-4" d="M276.06,193.14h.75v11.29c0,1.71-.69,2.56-2.07,2.56l-.63,0v-.63h.49a1.33,1.33,0,0,0,1.13-.42,2.67,2.67,0,0,0,.33-1.57Zm.75-1.92h-.75v-2h.75Z"/><path class="cls-4" d="M287.81,198.34h-8.18a5,5,0,0,0,.91,3.2,3.31,3.31,0,0,0,2.82,1.38,3.55,3.55,0,0,0,2.39-.81,3.77,3.77,0,0,0,1.24-2.22h.75a4.42,4.42,0,0,1-1.43,2.74,4.47,4.47,0,0,1-2.95,1,4.08,4.08,0,0,1-3.36-1.53,5.64,5.64,0,0,1-1.12-3.63,6.44,6.44,0,0,1,1.08-3.81,3.94,3.94,0,0,1,3.4-1.7,4.06,4.06,0,0,1,3.47,1.62A5.73,5.73,0,0,1,287.81,198.34Zm-8.18-.65h7.44a4.64,4.64,0,0,0-1-2.88,3.4,3.4,0,0,0-2.72-1.25,3.26,3.26,0,0,0-2.65,1.31A5,5,0,0,0,279.63,197.69Z"/><path class="cls-4" d="M298.11,196.3h-.75a2.67,2.67,0,0,0-1.05-2,3.91,3.91,0,0,0-2.38-.71A3.46,3.46,0,0,0,291,195a5,5,0,0,0-1,3.15,5.54,5.54,0,0,0,1,3.43,3.51,3.51,0,0,0,2.94,1.35,3.4,3.4,0,0,0,2.37-.88,3.7,3.7,0,0,0,1.16-2.29h.75a4.31,4.31,0,0,1-1.42,2.81,4.61,4.61,0,0,1-6.43-.63,6.24,6.24,0,0,1-1.09-3.79,5.65,5.65,0,0,1,1.21-3.69,4.23,4.23,0,0,1,3.45-1.54,4.56,4.56,0,0,1,2.84.83A3.42,3.42,0,0,1,298.11,196.3Z"/><path class="cls-4" d="M303.87,193.14v.66h-2.21v7.12a1.66,1.66,0,0,0,.57,1.51,3,3,0,0,0,1.62.26v.65a3.44,3.44,0,0,1-2.05-.32,2.24,2.24,0,0,1-.89-2.1V193.8H299v-.66h1.87V190h.75v3.17Z"/><path class="cls-4" d="M305,200h.75a3,3,0,0,0,1,2.18,3.47,3.47,0,0,0,2.34.79,4.9,4.9,0,0,0,2.11-.41,1.84,1.84,0,0,0,1.1-1.75,1.75,1.75,0,0,0-1.08-1.68,11.83,11.83,0,0,0-2.39-.66,7.52,7.52,0,0,1-2.41-.79,2.37,2.37,0,0,1-1.08-2.11,2.22,2.22,0,0,1,1.18-2.06,5,5,0,0,1,2.49-.55c2.5,0,3.74,1.08,3.74,3.25H312c0-1.73-1-2.6-3-2.6a4,4,0,0,0-2,.44,1.65,1.65,0,0,0-.95,1.52,1.71,1.71,0,0,0,1.06,1.61,10.81,10.81,0,0,0,2.31.64,7.79,7.79,0,0,1,2.55.85,2.63,2.63,0,0,1-.28,4.38,5.37,5.37,0,0,1-2.64.58,4.33,4.33,0,0,1-2.9-.93A3.45,3.45,0,0,1,305,200Z"/><g class="cls-5"><path class="cls-6" d="M284.67,29.39H231.6a25.69,25.69,0,0,0-22.31,13L182.5,89.3a25.7,25.7,0,0,0,0,25.46l26.79,47a25.69,25.69,0,0,0,22.31,12.95h53.07A25.67,25.67,0,0,0,307,161.72l26.8-47a25.7,25.7,0,0,0,0-25.46L307,42.35A25.68,25.68,0,0,0,284.67,29.39Z"/></g><g class="cls-7"><path class="cls-6" d="M280,221.14H227a25.69,25.69,0,0,0-22.31,13l-26.79,47a25.65,25.65,0,0,0,0,25.46l26.79,46.95a25.67,25.67,0,0,0,22.31,13H280a25.67,25.67,0,0,0,22.31-13l26.79-46.95a25.65,25.65,0,0,0,0-25.46l-26.79-47A25.69,25.69,0,0,0,280,221.14Z"/></g><g class="cls-8"><path class="cls-6" d="M131,116.1H78a25.71,25.71,0,0,0-22.32,13L28.86,176a25.71,25.71,0,0,0,0,25.47l26.79,47a25.71,25.71,0,0,0,22.32,13H131a25.71,25.71,0,0,0,22.32-13l26.79-47a25.71,25.71,0,0,0,0-25.47l-26.79-46.95A25.71,25.71,0,0,0,131,116.1Z"/></g></svg>