<?xml version="1.0" encoding="utf-8"?>
<!-- Generator: Adobe Illustrator 22.1.0, SVG Export Plug-In . SVG Version: 6.00 Build 0)  -->
<svg version="1.1" id="Layer_1" xmlns="http://www.w3.org/2000/svg" xmlns:xlink="http://www.w3.org/1999/xlink" x="0px" y="0px"
	 viewBox="0 0 423.6 288.9" style="enable-background:new 0 0 423.6 288.9;" xml:space="preserve">
<style type="text/css">
	.st0{fill:#FFFFFF;}
	.st1{fill:#2C6DA9;}
	.st2{font-family:'HelveticaNeueThin';}
	.st3{font-size:18px;}
	.st4{fill:none;stroke:#CF5261;stroke-width:11;stroke-miterlimit:10;}
</style>
<rect x="20.3" y="78.2" width="218" height="87"/>
<g>
	<path class="st0" d="M38.9,85.2v67.1h-8V85.2H38.9z"/>
	<path class="st0" d="M51.8,95v-9.8h8V95H51.8z M59.8,103.7v48.6h-8v-48.6H59.8z"/>
	<path class="st0" d="M78.3,141.5c0.8,1.2,1.7,2.2,3,2.9c1.2,0.7,2.6,1.2,4.1,1.6c1.5,0.3,3.1,0.5,4.7,0.5c1.3,0,2.6-0.1,3.9-0.3
		c1.4-0.2,2.6-0.5,3.8-1c1.2-0.5,2.1-1.2,2.9-2.2c0.8-1,1.1-2.2,1.1-3.7c0-2.1-0.8-3.6-2.4-4.7c-1.6-1.1-3.5-1.9-5.9-2.6
		c-2.4-0.7-4.9-1.3-7.7-1.8c-2.8-0.5-5.3-1.3-7.7-2.3c-2.3-1-4.3-2.3-5.9-4.1c-1.6-1.8-2.3-4.2-2.3-7.3c0-2.4,0.5-4.5,1.6-6.3
		c1.1-1.8,2.5-3.2,4.2-4.3c1.7-1.1,3.7-1.9,5.8-2.4c2.2-0.5,4.3-0.8,6.4-0.8c2.8,0,5.3,0.2,7.6,0.7c2.3,0.5,4.4,1.3,6.2,2.4
		c1.8,1.2,3.2,2.7,4.3,4.7c1.1,2,1.7,4.4,1.9,7.4h-8c-0.1-1.6-0.5-2.9-1.2-3.9c-0.7-1-1.6-1.9-2.6-2.5c-1.1-0.6-2.2-1.1-3.5-1.4
		c-1.3-0.3-2.6-0.4-3.9-0.4c-1.2,0-2.4,0.1-3.6,0.3c-1.2,0.2-2.3,0.5-3.3,1c-1,0.5-1.8,1.1-2.4,1.9c-0.6,0.8-0.9,1.8-0.9,3.1
		c0,1.4,0.5,2.5,1.5,3.4c1,0.9,2.2,1.7,3.7,2.3c1.5,0.6,3.2,1.1,5.1,1.5c1.9,0.4,3.8,0.8,5.6,1.3c2,0.4,4,1,5.9,1.6
		c1.9,0.6,3.6,1.5,5.1,2.5c1.5,1,2.7,2.3,3.6,3.9c0.9,1.6,1.4,3.5,1.4,5.8c0,2.9-0.6,5.4-1.8,7.3c-1.2,1.9-2.8,3.5-4.8,4.7
		c-2,1.2-4.2,2-6.7,2.5c-2.5,0.5-4.9,0.7-7.4,0.7c-2.7,0-5.3-0.3-7.7-0.8s-4.6-1.5-6.5-2.8c-1.9-1.3-3.4-3-4.5-5.1
		c-1.1-2.1-1.8-4.7-1.9-7.7h8C77.1,138.8,77.5,140.3,78.3,141.5z"/>
	<path class="st0" d="M126.7,103.7v7.7h0.2c3.3-5.9,8.6-8.8,15.8-8.8c3.2,0,5.9,0.4,8,1.3c2.1,0.9,3.9,2.1,5.2,3.7
		c1.3,1.6,2.2,3.4,2.8,5.6c0.5,2.2,0.8,4.6,0.8,7.2v32h-8v-32.9c0-3-0.9-5.4-2.6-7.1c-1.8-1.8-4.2-2.6-7.2-2.6
		c-2.4,0-4.6,0.4-6.3,1.1s-3.3,1.8-4.5,3.2c-1.2,1.4-2.1,3-2.7,4.8c-0.6,1.8-0.9,3.9-0.9,6.1v27.4h-8v-48.6H126.7z"/>
	<path class="st0" d="M208.8,153.4c-2.1,0-3.7-0.6-4.9-1.7s-1.8-3.1-1.8-5.7c-2.2,2.6-4.7,4.5-7.7,5.7c-2.9,1.2-6.1,1.7-9.4,1.7
		c-2.2,0-4.3-0.2-6.2-0.7c-1.9-0.5-3.7-1.3-5.1-2.4c-1.5-1.1-2.6-2.5-3.5-4.2c-0.8-1.7-1.3-3.8-1.3-6.3c0-2.8,0.5-5,1.4-6.8
		c0.9-1.8,2.2-3.2,3.7-4.3c1.5-1.1,3.3-1.9,5.3-2.5s4-1,6.1-1.4c2.2-0.4,4.3-0.8,6.3-1c2-0.2,3.7-0.5,5.2-0.9c1.5-0.4,2.7-1,3.6-1.8
		c0.9-0.8,1.3-1.9,1.3-3.4c0-1.8-0.3-3.2-1-4.2c-0.7-1.1-1.5-1.9-2.5-2.4s-2.2-0.9-3.5-1.1c-1.3-0.2-2.6-0.3-3.8-0.3
		c-3.4,0-6.2,0.6-8.5,1.9c-2.3,1.3-3.5,3.7-3.7,7.3h-8c0.1-3,0.8-5.5,1.9-7.6c1.1-2.1,2.6-3.7,4.5-5c1.9-1.3,4-2.2,6.5-2.8
		s5-0.8,7.7-0.8c2.2,0,4.4,0.2,6.5,0.5c2.2,0.3,4.1,1,5.9,1.9c1.8,1,3.2,2.3,4.2,4.1c1.1,1.8,1.6,4,1.6,6.9v25
		c0,1.9,0.1,3.3,0.3,4.1c0.2,0.9,1,1.3,2.2,1.3c0.7,0,1.5-0.2,2.4-0.5v6.2C213.1,153,211.2,153.4,208.8,153.4z M197.6,128.9
		c-1.6,0.3-3.3,0.6-5.1,0.8c-1.8,0.2-3.6,0.5-5.4,0.8c-1.8,0.3-3.4,0.7-4.9,1.4c-1.4,0.6-2.6,1.5-3.5,2.7c-0.9,1.2-1.4,2.7-1.4,4.7
		c0,1.3,0.3,2.4,0.8,3.3c0.5,0.9,1.2,1.6,2.1,2.2c0.8,0.6,1.8,1,3,1.2c1.2,0.3,2.3,0.4,3.5,0.4c2.6,0,4.9-0.4,6.8-1.1
		c1.9-0.7,3.4-1.6,4.6-2.7c1.2-1.1,2.1-2.3,2.6-3.6c0.6-1.3,0.8-2.5,0.8-3.6v-8.2C200.5,128,199.2,128.6,197.6,128.9z"/>
	<path d="M65,214.8l-17.7,46.8h-4.3l-18.8-46.8h4l16.9,42.8h0.2l15.8-42.8H65z"/>
	<path d="M104.4,225.9v27c0,1.8,0.1,3.1,0.4,3.8c0.4,1.2,1.3,1.8,2.7,1.8c0.6,0,1.5-0.1,2.5-0.3v2.9c-1.3,0.2-2.3,0.4-2.8,0.4
		c-2.4,0-4.1-0.6-5-1.8c-0.9-1-1.3-2.7-1.3-5v-2.5h-0.2c-1.2,3-3.2,5.4-6.2,7.3c-3.2,2.1-6.9,3.1-11.2,3.1
		c-10.4,0-15.7-4.4-15.7-13.2c0-8.4,5.7-13,17.2-13.8c7.6-0.5,12.1-1.3,13.7-2.4c1.6-1,2.4-3.5,2.4-7.4c0-1.8-0.8-3.6-2.5-5.4
		c-2.4-2.5-5.8-3.8-10.4-3.8c-4.2,0-7.6,1.1-10.2,3.2c-2.5,2.2-3.9,5.2-4.2,9.2h-3.5c0.5-10.3,6.4-15.5,17.8-15.5
		C98.9,213.7,104.4,217.7,104.4,225.9z M101,243.7V235c-1.2,1.3-3.4,2.1-6.8,2.5c-3.4,0.4-6.8,0.8-10.1,1.1
		c-8.6,1-12.8,4.6-12.8,10.8c0,3,1,5.4,3.1,7.2c2.2,2,5.2,3,9.2,3c6.7,0,11.6-2.3,14.7-7C100,249.7,101,246.7,101,243.7z"/>
	<path d="M118.9,214.8v10.4h0.3c0.9-3.1,3.1-5.7,6.5-7.8c3.4-2.1,7.2-3,11.4-2.9v3.5c-0.6,0-1.2,0-1.8,0c-4.3,0-8,1.5-11.1,4.6
		c-1.9,1.9-3.2,3.7-3.9,5.4c-0.9,2-1.4,4.7-1.4,8v25.5h-3.5v-46.8H118.9z"/>
	<path d="M176,214.8h3.5v44.3c0,4.7-0.9,8.6-2.5,11.6c-3.2,5.9-9.1,8.8-17.7,8.6c-11.7-0.2-17.8-5.1-18.3-14.6h3.5
		c0.4,3.9,2,6.9,4.9,8.9c2.5,1.8,5.9,2.6,10,2.6c7,0,11.8-2.4,14.5-7.1c1.5-2.5,2.2-5.7,2.2-9.4v-10.7c-3.4,7.1-9,10.6-17,10.6
		c-6.6,0-11.8-2.2-15.4-6.6c-3.3-4.1-4.9-9.6-4.9-16.5c0-6.5,1.7-11.9,5.2-16.2c3.7-4.5,8.7-6.8,15.1-6.8c3.8,0,7.3,1,10.4,2.9
		s5.4,4.6,6.6,8V214.8z M159,216.7c-5.4,0-9.6,2.1-12.6,6.3c-2.8,3.8-4.2,8.3-4.2,13.7c0,5.8,1.4,10.5,4.3,14.2
		c3,3.9,7.2,5.9,12.5,5.9c5.4,0,9.7-2,12.8-6.1c2.9-3.7,4.3-8.4,4.3-14c0-5.6-1.4-10.3-4.2-13.9C168.7,218.7,164.4,216.7,159,216.7z
		"/>
	<path d="M189.6,196.6h3.5v28.2c1.2-3.4,3.4-6.1,6.6-8.2c3-1.9,6.5-2.9,10.2-2.9c7.1,0,12,2.4,14.5,7.3c1.5,2.7,2.2,6.6,2.2,11.6
		v28.9h-3.5V232c0-10.2-4.4-15.3-13.3-15.3c-5.2,0-9.3,1.8-12.3,5.4c-3,3.6-4.5,8.3-4.5,14.2v25.3h-3.5V196.6z"/>
	<path d="M275.9,238.6h-37.8c-0.1,5.9,1.3,10.8,4.2,14.7c3.2,4.2,7.5,6.4,13,6.4c4.4,0,8.1-1.2,11.1-3.7c2.9-2.5,4.8-5.9,5.7-10.2
		h3.5c-0.9,5.5-3.1,9.6-6.6,12.6c-3.5,2.9-8,4.4-13.6,4.4c-6.6,0-11.7-2.3-15.5-7c-3.5-4.3-5.2-9.9-5.2-16.7c0-7,1.7-12.8,5-17.5
		c3.8-5.2,9-7.8,15.7-7.8c7,0,12.3,2.5,16,7.5C274.8,225.7,276.3,231.5,275.9,238.6z M238.2,235.6h34.3c-0.1-5.2-1.6-9.6-4.6-13.2
		c-3.2-3.8-7.4-5.7-12.6-5.7c-4.9,0-9,2-12.2,6C240.3,226.3,238.6,230.6,238.2,235.6z"/>
	<path d="M323.2,238.6h-37.8c-0.1,5.9,1.3,10.8,4.2,14.7c3.2,4.2,7.5,6.4,13,6.4c4.4,0,8.1-1.2,11.1-3.7c2.9-2.5,4.8-5.9,5.7-10.2
		h3.5c-0.9,5.5-3.1,9.6-6.6,12.6c-3.5,2.9-8,4.4-13.6,4.4c-6.6,0-11.7-2.3-15.5-7c-3.5-4.3-5.2-9.9-5.2-16.7c0-7,1.7-12.8,5-17.5
		c3.8-5.2,9-7.8,15.7-7.8c7,0,12.3,2.5,16,7.5C322,225.7,323.5,231.5,323.2,238.6z M285.4,235.6h34.3c-0.1-5.2-1.6-9.6-4.6-13.2
		c-3.2-3.8-7.4-5.7-12.6-5.7c-4.9,0-9,2-12.2,6C287.5,226.3,285.8,230.6,285.4,235.6z"/>
	<path d="M329.5,246h3.5c0.2,4.2,1.8,7.6,4.7,10c2.9,2.4,6.5,3.6,10.8,3.6c3.9,0,7.1-0.6,9.7-1.9c3.4-1.7,5.1-4.4,5.1-8
		c0-3.5-1.7-6.1-5-7.7c-1.8-0.8-5.4-1.8-11-3c-5.2-1-8.9-2.2-11.1-3.6c-3.3-2.2-5-5.4-5-9.6c0-4.2,1.8-7.4,5.5-9.5
		c3-1.7,6.8-2.5,11.5-2.5c11.5,0,17.3,5,17.3,14.9h-3.5c-0.1-7.9-4.7-11.9-13.8-11.9c-3.6,0-6.7,0.7-9.1,2c-2.9,1.6-4.4,4-4.4,7
		c0,3.3,1.6,5.7,4.9,7.4c1.8,0.9,5.4,1.9,10.6,2.9c5.6,1.2,9.6,2.5,11.7,3.9c3.2,2.1,4.8,5.4,4.8,9.8c0,4.6-2,8-6.1,10.3
		c-3.2,1.8-7.3,2.6-12.2,2.6c-5.5,0-10-1.4-13.4-4.3C331.4,255.4,329.6,251.3,329.5,246z"/>
	<path d="M414.2,238.6h-37.8c-0.1,5.9,1.3,10.8,4.2,14.7c3.2,4.2,7.5,6.4,13,6.4c4.4,0,8.1-1.2,11.1-3.7c2.9-2.5,4.8-5.9,5.7-10.2
		h3.5c-0.9,5.5-3.1,9.6-6.6,12.6c-3.5,2.9-8,4.4-13.6,4.4c-6.6,0-11.7-2.3-15.5-7c-3.5-4.3-5.2-9.9-5.2-16.7c0-7,1.7-12.8,5-17.5
		c3.8-5.2,9-7.8,15.7-7.8c7,0,12.3,2.5,16,7.5C413,225.7,414.5,231.5,414.2,238.6z M376.4,235.6h34.3c-0.1-5.2-1.6-9.6-4.6-13.2
		c-3.2-3.8-7.4-5.7-12.6-5.7c-4.9,0-9,2-12.2,6C378.5,226.3,376.8,230.6,376.4,235.6z"/>
</g>
<text transform="matrix(1 0 0 1 24.4166 27.8337)" class="st1 st2 st3">UI/UX DESIGNER</text>
<line class="st4" x1="24.3" y1="54.2" x2="114.3" y2="54"/>
</svg>
