<svg id="Layer_1" data-name="Layer 1" xmlns="http://www.w3.org/2000/svg" xmlns:xlink="http://www.w3.org/1999/xlink" viewBox="0 0 379.01 404.28"><defs><style>.cls-1{fill:none;stroke:#2c6da9;stroke-miterlimit:10;stroke-width:6.59px;}.cls-2{clip-path:url(#clip-path);}.cls-3{fill:#fff;}.cls-4{fill:#606060;}.cls-5{opacity:0.5;}.cls-6{fill:#2c6da9;}.cls-7{opacity:0.1;}.cls-8{opacity:0.15;}</style><clipPath id="clip-path"><path class="cls-1" d="M273.57,209.63l-54.33.26a24.61,24.61,0,0,0-21.31,12.5l-27.19,48.17a24.62,24.62,0,0,0,.11,24.39l27.64,47.91a24.6,24.6,0,0,0,21.43,12.31l54.33-.26a24.58,24.58,0,0,0,21.3-12.5l27.2-48.17a24.62,24.62,0,0,0-.12-24.39L295,221.94A24.62,24.62,0,0,0,273.57,209.63Z"/></clipPath></defs><title>workExpButton</title><g class="cls-2"><path class="cls-3" d="M150.93,182H330.18V347H150.93ZM291.68,305.91V293h-7.34c-1.06-3.17.29-6,.58-8.86a.34.34,0,0,1,.14-.22c1.18-.45.83-1.49.95-2.37a5.21,5.21,0,0,1,.41-1.38,9.9,9.9,0,0,0,.66-1.24c.35-1.53.62-3.08.95-4.61,0-.15.35-.22.51-.36s.45-.34.47-.53a4.9,4.9,0,0,1,.76-2.73c.57-.76-.36-2.35,1.18-2.92,0,0,0-.17,0-.26a6,6,0,0,1,.75-3.14c.49-.8,0-2,1.08-2.89.59-.49.1-1.89,1.07-2.86.59-.6.3-2.21.9-3.31.44-.81.09-1.77,1-2.72s.86-2.72,1.07-4.17a21.75,21.75,0,0,0,0-3.33c0-1.2-1.8-3.07-3-2.95-1.61.15-3.19.52-4.62.77-.23.82-.3,1.75-.53,1.79-1.18.21-.7,1.09-.87,1.71s-.54,1.06-.64,1.62a7.24,7.24,0,0,1-1.2,3.7c-.52.65.3,2.1-1.11,2.56-.07,0,0,.35-.08.53-.29,1.33-.58,2.66-.9,4,0,.15-.25.24-.32.39a6.61,6.61,0,0,0-.71,1.5c-.37,1.58-.64,3.18-1,4.77a.6.6,0,0,1-.19.36c-1.32.74-1.19,2.3-1.77,3.42-.76,1.47-.75,3.35-1.07,5,0,.13,0,.37-.08.38-1.47.37-.58,1.77-1.07,2.43-.83,1.13-.67,2.34-.83,3.55,0,.11-.14.3-.22.3-1.05.05-.65.88-.83,1.43-.41,1.18-.9,2.33-1.39,3.47-.05.12-.33.18-.51.18h-8.78c0-.79-.26-1.71.06-2,.94-.91.66-2,.69-3a31,31,0,0,0,0-4.31,22.83,22.83,0,0,0-.87-3.49c0-.1-.2-.15-.3-.24-.87-.72-2.07-1.29-2.52-2.22s-.92-.82-1.57-.82H236.58c-5.29,0-10.58,0-15.87,0-1.33,0-1.89-.38-1.84-1.83.11-3.06.14-6.13,0-9.18a34,34,0,0,0-1-5.26c-.05-.23-.34-.4-.51-.6-.48-.54-1.35-1.06-1.37-1.62-.07-2-1.87-2.45-2.78-3.66-.22-.3-.32-.82-.59-.92-1-.39-2.13-.65-3.2-1-.13,0-.33-.07-.36-.15-.72-1.91-2.36-1.7-3.92-1.76a3.16,3.16,0,0,1-1.21-.38c-.42-.19-.8-.64-1.21-.66-1.2-.09-2.41,0-3.62,0-.32,0-.84,0-.92.14-.63,1.27-1.81,1-2.79.95s-1.69.67-2.45,1.18a10.88,10.88,0,0,1-1.15.76,24.31,24.31,0,0,0-2.66,1.31c-.59.41-.89,1.24-1.47,1.67-1.32,1-2.56,1.87-2.9,3.63-.13.73-.4,1.8-.91,2-1.23.52-.93,1.44-.93,2.26q0,16,0,32c0,.5.45,1,.69,1.5l.39-.12v1.52q0,9,0,18a2.11,2.11,0,0,0,2.32,2.31h31.18a2.47,2.47,0,0,0,2.49-2.45c0-6.17,0-12.34,0-18.51,0-.5-.48-1-.74-1.49s-.54-1.46.67-1.45c3.66,0,7.32,0,11,0,.33,0,.7.52,1,.86a11.93,11.93,0,0,1,.79,1.35c.5,2.61.5,2.62-2.27,2.66a6.76,6.76,0,0,0-5,1.94c-.26.26-.33.71-.6,1a5.82,5.82,0,0,0-1.76,3.73,8.07,8.07,0,0,0,1.72,4.57c1,1.64,2.17,1.66,3.61,1.66h63.36ZM227,240.56a4.61,4.61,0,0,0,.78-.65,8.42,8.42,0,0,0,3.18-5.37c0-.15.21-.37.32-.37.88,0,.69-.67.73-1.19s0-1.64.21-1.7c1.39-.39.85-1.46.89-2.25a43.9,43.9,0,0,0,0-4.73c-.07-1.23.57-2.71-1-3.55-.09-.05,0-.37-.09-.53-.47-1.08-1-2.15-1.45-3.24a7.29,7.29,0,0,0-.66-1.79c-.9-1.07-1.94-2-2.94-3a5.42,5.42,0,0,0-1.32-1.22,24.93,24.93,0,0,1-4-1.83c-.93-.61-2.64-.22-3.74-1.23-.1-.09-.36-.05-.54,0-1.29.15-2.51-.16-3.81.9-1.05.85-3.1-.14-4.4,1.27-.48.53-1.5.55-2,1.06-1.43,1.37-2.71,2.88-4.07,4.32-.32.32-.91.48-1.05.85-.41,1-.65,2.14-1,3.21a2.79,2.79,0,0,1-.26.59c-.26.5-.77,1-.78,1.5-.08,3.19-.05,6.4,0,9.6,0,.3.08.85.18.87,1.21.19.73,1.15.94,1.83a8.8,8.8,0,0,0,1.22,2.95,55,55,0,0,0,4,4.2,4.28,4.28,0,0,0,1.24,1.1c1,.41,2.08.63,3.12,1,.14,0,.2.28.33.37.36.23.73.62,1.11.63,2.45,0,4.92.09,7.37,0,.95,0,2.28.68,2.75-.94,0-.1.44,0,.64-.13a11,11,0,0,0,1.17-.63C224.89,241.84,225.77,241.29,227,240.56Z"/><path d="M291.68,305.91H228.32c-1.44,0-2.57,0-3.61-1.66a8.07,8.07,0,0,1-1.72-4.57,5.82,5.82,0,0,1,1.76-3.73c.27-.26.34-.71.6-1a6.76,6.76,0,0,1,5-1.94c2.77,0,2.77-.05,2.27-2.66a11.93,11.93,0,0,0-.79-1.35c-.26-.34-.63-.85-1-.86-3.67-.06-7.33,0-11,0-1.21,0-.94.86-.67,1.45s.74,1,.74,1.49c.05,6.17,0,12.34,0,18.51a2.47,2.47,0,0,1-2.49,2.45H186.34a2.11,2.11,0,0,1-2.32-2.31q0-9,0-18v-1.52l-.39.12c-.24-.5-.69-1-.69-1.5q-.06-16,0-32c0-.82-.3-1.74.93-2.26.51-.21.78-1.28.91-2,.34-1.76,1.58-2.67,2.9-3.63.58-.43.88-1.26,1.47-1.67a24.31,24.31,0,0,1,2.66-1.31,10.88,10.88,0,0,0,1.15-.76c.76-.51,1.35-1.23,2.45-1.18s2.16.32,2.79-.95c.08-.16.6-.13.92-.14,1.21,0,2.42-.08,3.62,0,.41,0,.79.47,1.21.66a3.16,3.16,0,0,0,1.21.38c1.56.06,3.2-.15,3.92,1.76,0,.08.23.11.36.15,1.07.31,2.16.57,3.2,1,.27.1.37.62.59.92.91,1.21,2.71,1.69,2.78,3.66,0,.56.89,1.08,1.37,1.62.17.2.46.37.51.6a34,34,0,0,1,1,5.26c.16,3.05.13,6.12,0,9.18-.05,1.45.51,1.84,1.84,1.83,5.29,0,10.58,0,15.87,0h24.07c.65,0,1.14-.09,1.57.82s1.65,1.5,2.52,2.22c.1.09.27.14.3.24a22.83,22.83,0,0,1,.87,3.49,31,31,0,0,1,0,4.31c0,1,.25,2.09-.69,3-.32.3-.06,1.22-.06,2H274c.18,0,.46-.06.51-.18.49-1.14,1-2.29,1.39-3.47.18-.55-.22-1.38.83-1.43.08,0,.21-.19.22-.3.16-1.21,0-2.42.83-3.55.49-.66-.4-2.06,1.07-2.43.05,0,.06-.25.08-.38.32-1.7.31-3.58,1.07-5,.58-1.12.45-2.68,1.77-3.42a.6.6,0,0,0,.19-.36c.32-1.59.59-3.19,1-4.77a6.61,6.61,0,0,1,.71-1.5c.07-.15.29-.24.32-.39.32-1.33.61-2.66.9-4,0-.18,0-.5.08-.53,1.41-.46.59-1.91,1.11-2.56a7.24,7.24,0,0,0,1.2-3.7c.1-.56.48-1.06.64-1.62s-.31-1.5.87-1.71c.23,0,.3-1,.53-1.79,1.43-.25,3-.62,4.62-.77,1.18-.12,2.95,1.75,3,2.95a21.75,21.75,0,0,1,0,3.33c-.21,1.45-.21,3.24-1.07,4.17s-.52,1.91-1,2.72c-.6,1.1-.31,2.71-.9,3.31-1,1-.48,2.37-1.07,2.86-1.09.9-.59,2.09-1.08,2.89a6,6,0,0,0-.75,3.14c0,.09,0,.25,0,.26-1.54.57-.61,2.16-1.18,2.92a4.9,4.9,0,0,0-.76,2.73c0,.19-.29.37-.47.53s-.47.21-.51.36c-.33,1.53-.6,3.08-.95,4.61a9.9,9.9,0,0,1-.66,1.24,5.21,5.21,0,0,0-.41,1.38c-.12.88.23,1.92-.95,2.37a.34.34,0,0,0-.14.22c-.29,2.89-1.64,5.69-.58,8.86h7.34Zm-33.29-9.74H228.77c-2.17,0-3,.76-2.88,2.93,0,1.09-.33,2.16,1,3.19,1,.82,1.74,1.58,3.09,1.58h45.62c4.26,0,8.53,0,12.79,0,1.07,0,1.51-.37,1.46-1.46-.05-1.43,0-2.87,0-4.31,0-1.93,0-1.94-1.92-1.94ZM234.3,289.1c.63,1.23,1.11,2.26,1.67,3.25a1.28,1.28,0,0,0,.77.58,11.36,11.36,0,0,0,1.94.1q20,0,40.08,0a2.48,2.48,0,0,0,1.1-.07,2.08,2.08,0,0,0,1-1,11.38,11.38,0,0,0,.07-2.19,10.11,10.11,0,0,1,.14-2.21c.11-.43.82-.72.9-1.14a14,14,0,0,1,1.88-5.78,7.44,7.44,0,0,0,.91-3.89c0-1.7,1.85-2.85,1.28-4.66,0,0,.22-.13.28-.24a4.46,4.46,0,0,0,.71-1.22c.35-1.44.61-2.89.92-4.34,0-.08.09-.21.14-.21,1.25-.14.77-1.13.91-1.81.29-1.36.58-2.72.9-4.07,0-.13.28-.2.37-.34a3.68,3.68,0,0,0,.65-1.13c.34-1.44.61-2.91.91-4.36,0-.12.15-.21.21-.32a7.26,7.26,0,0,0,.82-1.52c.49-1.82.88-3.67,1.36-5.5.05-.21.37-.36.64-.61l-2.66-2.54-1.2,2.57c-.05.12-.08.36-.14.36-1.39.11-.8,1.19-.94,1.9-.07.36,0,.94-.15,1.06-1.46.87,0,2.94-1.7,3.88-.48.26-.25,2-.85,3-.47.81.27,2.21-1.14,2.72-.21,2.19-1.38,4.07-2,6.13a7.56,7.56,0,0,0,0,.83c0,.2-.14.54-.26.56-1.05.18-.74,1-.82,1.65-.06.41.08,1.09-.12,1.2-1.55.83.1,3-1.72,3.87-.61.3.17,2.14-1.11,3.07-.56.41-.24,1.78-.8,2.77-.66,1.18,0,2.77-1.14,4.17-.86,1-.75,2.88-1.08,4.39l-.9.05c-12.2.18-24.41-.48-36.6.76-1.33.14-2.68,0-4,.09A7.22,7.22,0,0,0,234.3,289.1Z"/><path d="M227,240.56c-1.2.73-2.08,1.28-3,1.81a11,11,0,0,1-1.17.63c-.2.09-.62,0-.64.13-.47,1.62-1.8.91-2.75.94-2.45.1-4.92.06-7.37,0-.38,0-.75-.4-1.11-.63-.13-.09-.19-.33-.33-.37-1-.33-2.12-.55-3.12-1a4.28,4.28,0,0,1-1.24-1.1,55,55,0,0,1-4-4.2,8.8,8.8,0,0,1-1.22-2.95c-.21-.68.27-1.64-.94-1.83-.1,0-.18-.57-.18-.87,0-3.2,0-6.41,0-9.6,0-.51.52-1,.78-1.5a2.79,2.79,0,0,0,.26-.59c.31-1.07.55-2.18,1-3.21.14-.37.73-.53,1.05-.85,1.36-1.44,2.64-2.95,4.07-4.32.53-.51,1.55-.53,2-1.06,1.3-1.41,3.35-.42,4.4-1.27,1.3-1.06,2.52-.75,3.81-.9.18,0,.44-.06.54,0,1.1,1,2.81.62,3.74,1.23a24.93,24.93,0,0,0,4,1.83,5.42,5.42,0,0,1,1.32,1.22c1,1,2,1.94,2.94,3a7.29,7.29,0,0,1,.66,1.79c.46,1.09,1,2.16,1.45,3.24.07.16,0,.48.09.53,1.57.84.93,2.32,1,3.55a43.9,43.9,0,0,1,0,4.73c0,.79.5,1.86-.89,2.25-.21.06-.16,1.1-.21,1.7s.15,1.16-.73,1.19c-.11,0-.27.22-.32.37a8.42,8.42,0,0,1-3.18,5.37A4.61,4.61,0,0,1,227,240.56Z"/><path class="cls-3" d="M258.39,296.17h29.48c1.91,0,1.91,0,1.92,1.94,0,1.44,0,2.88,0,4.31.05,1.09-.39,1.47-1.46,1.46-4.26,0-8.53,0-12.79,0H229.93c-1.35,0-2.09-.76-3.09-1.58-1.28-1-.92-2.1-1-3.19-.07-2.17.71-2.92,2.88-2.93Z"/><path class="cls-3" d="M234.3,289.1a7.22,7.22,0,0,1,1.14-.17c1.35-.05,2.7.05,4-.09,12.19-1.24,24.4-.58,36.6-.76l.9-.05c.33-1.51.22-3.35,1.08-4.39,1.15-1.4.48-3,1.14-4.17.56-1,.24-2.36.8-2.77,1.28-.93.5-2.77,1.11-3.07,1.82-.91.17-3,1.72-3.87.2-.11.06-.79.12-1.2.08-.63-.23-1.47.82-1.65.12,0,.22-.36.26-.56a7.56,7.56,0,0,1,0-.83c.61-2.06,1.78-3.94,2-6.13,1.41-.51.67-1.91,1.14-2.72.6-1,.37-2.76.85-3,1.74-.94.24-3,1.7-3.88.19-.12.08-.7.15-1.06.14-.71-.45-1.79.94-1.9.06,0,.09-.24.14-.36l1.2-2.57,2.66,2.54c-.27.25-.59.4-.64.61-.48,1.83-.87,3.68-1.36,5.5a7.26,7.26,0,0,1-.82,1.52c-.06.11-.19.2-.21.32-.3,1.45-.57,2.92-.91,4.36a3.68,3.68,0,0,1-.65,1.13c-.09.14-.34.21-.37.34-.32,1.35-.61,2.71-.9,4.07-.14.68.34,1.67-.91,1.81-.05,0-.13.13-.14.21-.31,1.45-.57,2.9-.92,4.34a4.46,4.46,0,0,1-.71,1.22c-.06.11-.29.2-.28.24.57,1.81-1.23,3-1.28,4.66a7.44,7.44,0,0,1-.91,3.89,14,14,0,0,0-1.88,5.78c-.08.42-.79.71-.9,1.14a10.11,10.11,0,0,0-.14,2.21,11.38,11.38,0,0,1-.07,2.19,2.08,2.08,0,0,1-1,1,2.48,2.48,0,0,1-1.1.07q-20,0-40.08,0a11.36,11.36,0,0,1-1.94-.1,1.28,1.28,0,0,1-.77-.58C235.41,291.36,234.93,290.33,234.3,289.1Z"/></g><path class="cls-1" d="M273.57,209.63l-54.33.26a24.61,24.61,0,0,0-21.31,12.5l-27.19,48.17a24.62,24.62,0,0,0,.11,24.39l27.64,47.91a24.6,24.6,0,0,0,21.43,12.31l54.33-.26a24.58,24.58,0,0,0,21.3-12.5l27.2-48.17a24.62,24.62,0,0,0-.12-24.39L295,221.94A24.62,24.62,0,0,0,273.57,209.63Z"/><path class="cls-4" d="M182.61,384.19,178.55,370h.89l3.67,13.23h0L186.87,370H188l3.79,13.23h0L195.4,370h.92l-4,14.16h-1l-3.86-13.41h0l-3.81,13.41Z"/><path class="cls-4" d="M197,379.1a5.72,5.72,0,0,1,1.21-3.75,4.54,4.54,0,0,1,6.9,0,6.46,6.46,0,0,1,0,7.5,4.56,4.56,0,0,1-6.9,0A5.76,5.76,0,0,1,197,379.1Zm.75,0a5.18,5.18,0,0,0,1,3.25,3.66,3.66,0,0,0,5.8,0,5.8,5.8,0,0,0,0-6.51,3.66,3.66,0,0,0-5.8,0A5.21,5.21,0,0,0,197.74,379.1Z"/><path class="cls-4" d="M209,374v2.26H209a3,3,0,0,1,1.41-1.7,4.33,4.33,0,0,1,2.48-.62v.75h-.39a3.29,3.29,0,0,0-2.41,1,3.84,3.84,0,0,0-.85,1.19,4.26,4.26,0,0,0-.29,1.74v5.56h-.75V374Z"/><path class="cls-4" d="M213.9,384.19V370h.75v9.38L220.9,374H222l-4.43,3.81,4.75,6.38h-1L217,378.38l-2.3,2v3.84Z"/><path class="cls-4" d="M229.79,383.44h8.7v.75h-9.56V370h9.46v.75h-8.6v5.68h8.09v.75h-8.09Z"/><path class="cls-4" d="M238.77,384.19l4-5.35-3.7-4.84h1l3.18,4.26,3.19-4.26h1l-3.67,4.84,4,5.35h-1l-3.47-4.78-3.55,4.78Z"/><path class="cls-4" d="M249.83,374v2.34a3.64,3.64,0,0,1,1.13-1.67,3.86,3.86,0,0,1,2.58-.91,4.13,4.13,0,0,1,3.47,1.61,6,6,0,0,1,1.11,3.75,5.86,5.86,0,0,1-1.13,3.8,4.11,4.11,0,0,1-3.45,1.51,3.54,3.54,0,0,1-3.71-2.36v5.77h-.75V374Zm3.72,9.78a3.43,3.43,0,0,0,2.91-1.39,6.3,6.3,0,0,0,0-6.49,3.36,3.36,0,0,0-2.93-1.49,3.26,3.26,0,0,0-2.87,1.45,5.76,5.76,0,0,0-.85,3.26C249.83,382.22,251.07,383.78,253.55,383.78Z"/><path class="cls-4" d="M268.51,379.2h-8.18a5,5,0,0,0,.9,3.19,3.35,3.35,0,0,0,2.83,1.39,3.54,3.54,0,0,0,2.39-.82,3.71,3.71,0,0,0,1.23-2.22h.75a4.3,4.3,0,0,1-1.43,2.74,4.44,4.44,0,0,1-2.94.95,4.08,4.08,0,0,1-3.36-1.53,5.6,5.6,0,0,1-1.12-3.63,6.39,6.39,0,0,1,1.08-3.8,4,4,0,0,1,3.4-1.71,4.05,4.05,0,0,1,3.47,1.63A5.73,5.73,0,0,1,268.51,379.2Zm-8.18-.66h7.43a4.57,4.57,0,0,0-1-2.88,3.4,3.4,0,0,0-2.72-1.25,3.26,3.26,0,0,0-2.65,1.31A5,5,0,0,0,260.33,378.54Z"/><path class="cls-4" d="M271.18,374v2.26h.05a3,3,0,0,1,1.41-1.7,4.33,4.33,0,0,1,2.48-.62v.75h-.39a3.29,3.29,0,0,0-2.41,1,3.84,3.84,0,0,0-.85,1.19,4.26,4.26,0,0,0-.29,1.74v5.56h-.75V374Z"/><path class="cls-4" d="M277,372.07h-.74v-2H277Zm0,12.12h-.74V374H277Z"/><path class="cls-4" d="M288,379.2h-8.19a5.06,5.06,0,0,0,.91,3.19,3.35,3.35,0,0,0,2.82,1.39A3.55,3.55,0,0,0,286,383a3.71,3.71,0,0,0,1.23-2.22h.75a4.34,4.34,0,0,1-1.43,2.74,4.45,4.45,0,0,1-2.95.95,4,4,0,0,1-3.35-1.53,5.6,5.6,0,0,1-1.12-3.63,6.39,6.39,0,0,1,1.08-3.8,3.94,3.94,0,0,1,3.39-1.71,4,4,0,0,1,3.47,1.63A5.68,5.68,0,0,1,288,379.2Zm-8.19-.66h7.44a4.58,4.58,0,0,0-1-2.88,3.37,3.37,0,0,0-2.72-1.25,3.26,3.26,0,0,0-2.64,1.31A5.11,5.11,0,0,0,279.83,378.54Z"/><path class="cls-4" d="M289.93,384.19V374h.75v2.18a3.38,3.38,0,0,1,1.43-1.79,4,4,0,0,1,2.22-.63,3.21,3.21,0,0,1,3.15,1.59,5.43,5.43,0,0,1,.48,2.54v6.3h-.75v-6.44c0-2.22-1-3.34-2.88-3.34a3.3,3.3,0,0,0-2.66,1.18,4.66,4.66,0,0,0-1,3.09v5.51Z"/><path class="cls-4" d="M308.71,377.15H308a2.63,2.63,0,0,0-1-2,3.85,3.85,0,0,0-2.38-.72,3.46,3.46,0,0,0-2.9,1.43,5,5,0,0,0-1,3.16,5.57,5.57,0,0,0,1,3.43,3.51,3.51,0,0,0,2.94,1.35,3.4,3.4,0,0,0,2.37-.89,3.67,3.67,0,0,0,1.16-2.29h.75a4.31,4.31,0,0,1-1.42,2.81,4.62,4.62,0,0,1-6.43-.62,6.25,6.25,0,0,1-1.08-3.79,5.64,5.64,0,0,1,1.2-3.69,4.24,4.24,0,0,1,3.45-1.55,4.62,4.62,0,0,1,2.84.83A3.44,3.44,0,0,1,308.71,377.15Z"/><path class="cls-4" d="M319.2,379.2H311a5,5,0,0,0,.91,3.19,3.32,3.32,0,0,0,2.82,1.39,3.51,3.51,0,0,0,2.39-.82,3.77,3.77,0,0,0,1.24-2.22h.75a4.39,4.39,0,0,1-1.43,2.74,4.47,4.47,0,0,1-2.95.95,4.08,4.08,0,0,1-3.36-1.53,5.6,5.6,0,0,1-1.12-3.63,6.39,6.39,0,0,1,1.08-3.8,4,4,0,0,1,3.4-1.71,4,4,0,0,1,3.47,1.63A5.73,5.73,0,0,1,319.2,379.2Zm-8.18-.66h7.44a4.64,4.64,0,0,0-1-2.88,3.4,3.4,0,0,0-2.72-1.25,3.26,3.26,0,0,0-2.65,1.31A5,5,0,0,0,311,378.54Z"/><path class="cls-3" d="M183.14,255.9a139.64,139.64,0,0,1,1.58,13.91q.5,7,.61,13.92c.08,4.64,0,9.28-.17,13.93A139.54,139.54,0,0,1,184,311.61a136.77,136.77,0,0,1-1.59-13.91c-.33-4.63-.54-9.27-.6-13.92s0-9.28.17-13.93A139.78,139.78,0,0,1,183.14,255.9Z"/><g class="cls-5"><path class="cls-6" d="M274,210.8H219.75a24.64,24.64,0,0,0-21.4,12.42l-27.39,48a24.63,24.63,0,0,0,0,24.42l27.39,48a24.64,24.64,0,0,0,21.4,12.42H274a24.64,24.64,0,0,0,21.4-12.42l27.39-48a24.63,24.63,0,0,0,0-24.42l-27.39-48A24.64,24.64,0,0,0,274,210.8Z"/></g><g class="cls-7"><path class="cls-6" d="M126.27,109.7H72a24.63,24.63,0,0,0-21.39,12.43l-27.4,48a24.66,24.66,0,0,0,0,24.41l27.4,48A24.65,24.65,0,0,0,72,255h54.3a24.62,24.62,0,0,0,21.39-12.43l27.4-48a24.61,24.61,0,0,0,0-24.41l-27.4-48A24.6,24.6,0,0,0,126.27,109.7Z"/></g><g class="cls-8"><path class="cls-6" d="M273.35,28.51H219.22a24.64,24.64,0,0,0-21.4,12.42L170.51,88.8a24.61,24.61,0,0,0,0,24.41l27.31,47.87a24.65,24.65,0,0,0,21.4,12.43h54.13a24.62,24.62,0,0,0,21.39-12.43l27.32-47.87a24.61,24.61,0,0,0,0-24.41L294.74,40.93A24.62,24.62,0,0,0,273.35,28.51Z"/></g></svg>